<?xml version="1.0" encoding="utf-8" ?>
<svg xmlns="http://www.w3.org/2000/svg" xmlns:xlink="http://www.w3.org/1999/xlink" width="1022" height="1022">
	<path fill="#FEFEFE" transform="scale(0.998047 0.998047)" d="M0 0L1024 0L1024 1024L0 1024L0 0Z"/>
	<path fill="#7FC6D6" transform="scale(0.998047 0.998047)" d="M608.143 206.231C608.309 206.246 608.477 206.252 608.642 206.276C611.819 206.732 617.029 212.151 618.786 214.762C619.415 215.698 620.241 217.229 619.853 218.384C618.742 221.694 612.359 225.725 609.353 227.439C606.784 227.424 602.556 222.808 600.732 220.899C599.504 219.613 598.208 217.831 598.502 215.942C598.991 212.794 605.642 208.362 608.143 206.231Z"/>
	<path fill="#7FC6D6" transform="scale(0.998047 0.998047)" d="M757.332 311.238C760.325 311.849 763.735 316.058 765.826 318.216C767.172 319.605 769.01 321.669 768.675 323.793C768.211 326.726 761.565 331.59 759.37 333.696C757.867 333.744 756.923 333.798 755.591 332.961C752.296 330.89 747.654 326.577 746.984 322.664C747.678 318.601 754.125 313.656 757.332 311.238Z"/>
	<path fill="#7FC6D6" transform="scale(0.998047 0.998047)" d="M418.342 189.456C419.783 189.773 421.133 190.054 422.128 191.244C424.46 194.035 423.598 199.68 423.542 203.077C427.504 203.025 432.204 202.28 435.606 204.832C436.665 205.626 436.986 206.22 437.197 207.487C436.801 208.389 436.976 208.182 436.331 208.91C433.366 212.257 427.657 211.806 423.655 211.872C423.535 215.175 424.355 219.683 422.853 222.688C421.908 224.581 420.42 224.914 418.552 225.457C417.956 225.058 417.335 224.666 416.806 224.175C413.929 221.501 414.864 215.255 414.849 211.648C411.44 211.571 406.953 212.102 403.812 210.892C402.674 210.453 401.604 209.673 401.254 208.444C400.88 207.13 401.11 206.192 401.706 205.024C404.924 202.255 409.764 203.934 413.641 202.783C416.55 199.853 414.419 196.144 415.423 192.511C415.912 190.739 416.842 190.26 418.342 189.456Z"/>
	<path fill="#194C6F" transform="scale(0.998047 0.998047)" d="M708.364 596.94C710.183 597.106 712.091 597.169 713.339 598.724C715.573 601.509 714.548 607.814 714.47 611.203C718.585 611.201 724.488 610.631 727.955 613.195C729.127 614.062 729.468 614.56 729.751 615.968C729.256 616.891 729.444 616.721 728.736 617.405C725.235 620.79 718.854 620.211 714.401 620.169C714.396 623.161 714.625 626.484 714.076 629.417C713.656 631.664 712.855 632.553 711.026 633.771C709.41 633.729 707.703 633.764 706.499 632.492C704.008 629.863 704.968 623.499 705.052 620.066C700.969 620.115 696.538 620.581 692.833 618.544C691.355 617.732 690.684 616.827 690.189 615.253C690.478 614.33 690.707 613.958 691.444 613.284C694.864 610.155 700.83 610.953 705.019 611.147C704.917 607.935 704.361 603.652 705.188 600.578C705.708 598.642 706.77 597.928 708.364 596.94Z"/>
	<path fill="#194C6F" transform="scale(0.998047 0.998047)" d="M302.671 593.519C304.298 593.628 306.339 593.497 307.539 594.78C310.153 597.574 309.006 604.948 309 608.597C313.316 608.449 318.805 607.667 322.58 610.198C323.798 611.014 324.259 611.773 324.516 613.187C324.217 613.962 323.953 614.394 323.352 614.996C319.989 618.36 313.287 617.548 308.912 617.456C308.583 621.037 308.98 624.622 308.568 628.204C308.321 630.345 307.728 631.109 306.058 632.429C304.582 632.286 302.582 632.211 301.49 631.099C298.893 628.453 300.05 620.957 300.088 617.476C296.385 617.493 292.608 617.816 289.075 616.524C287.151 615.821 285.847 614.97 285.008 613.052C285.219 611.913 285.309 611.566 286.182 610.719C289.438 607.561 295.929 608.445 300.118 608.575C299.986 605.032 299.455 600.87 300.115 597.403C300.479 595.492 301.116 594.635 302.671 593.519Z"/>
	<path fill="#7FC6D6" transform="scale(0.998047 0.998047)" d="M678.037 225.01Q678.613 224.976 679.189 224.966C680.587 224.949 681.775 225.123 682.721 226.285C685.834 230.11 684.503 244.356 684.47 249.72C691.019 249.985 700.744 247.93 706.659 250.697C708.11 251.375 708.569 252.155 709.09 253.616C708.92 255.217 708.539 256.459 707.336 257.576C703.169 261.446 690.33 259.533 684.606 259.451C684.579 265.31 685.56 271.751 684.479 277.517C684.017 279.981 683.04 280.914 681.022 282.312C679.215 282.168 677.891 282.077 676.621 280.673C672.942 276.605 674.634 264.687 674.793 259.469C669.604 259.419 654.241 260.862 650.85 256.98C650.195 256.23 649.963 255.545 649.926 254.585C649.87 253.139 650.361 252.164 651.436 251.189C655.148 247.823 669.116 249.514 674.469 249.537C674.639 242.947 673.359 235.292 674.864 228.9C675.384 226.689 676.237 226.156 678.037 225.01Z"/>
	<path fill="#194C6F" transform="scale(0.998047 0.998047)" d="M576.717 700.256C583.21 700.186 621.688 699.183 624.522 701.252C625.493 701.961 626.129 703.28 626.251 704.455C626.391 705.802 625.982 706.898 625.095 707.897C621.907 711.491 610.123 710.05 605.408 709.949L605.462 751.25C605.54 755.173 606.628 762.165 604.194 765.466C603.247 766.752 601.95 767.477 600.365 767.623C597.952 767.846 595.277 767.536 593.383 765.936C591.371 761.555 592.687 718.788 592.722 710.207C587.413 710.114 578.87 711.312 574.136 709.172C573.001 708.659 571.943 707.737 571.607 706.493C571.186 704.93 571.702 702.702 572.776 701.494C573.843 700.295 575.245 700.323 576.717 700.256Z"/>
	<path fill="#194C6F" transform="scale(0.998047 0.998047)" d="M635.048 700.598C641.959 700.101 663.124 699.516 669.537 700.338C671.007 700.526 672.97 700.926 674.041 702.055C674.746 702.799 674.991 703.431 675.071 704.418C675.193 705.922 674.749 707.032 673.689 708.118C670.597 711.283 651.28 709.658 646.247 709.611C646.176 715.678 646.233 721.75 646.241 727.818C651.181 727.877 665.102 726.434 668.675 729.133C669.772 729.961 670.412 730.864 670.557 732.259C670.69 733.53 670.38 734.708 669.515 735.667C666 739.568 651.379 737.613 646.271 737.458L646.266 746.481L646.127 757.341C654.07 757.215 662.395 756.587 670.301 757.205C672.332 757.363 674.136 757.312 675.402 759.075C676.294 760.316 676.674 762.902 676.095 764.321C675.553 765.65 674.232 766.41 672.911 766.78C670.083 767.574 643.209 767.498 639.191 767.142C637.833 767.022 636.52 766.866 635.333 766.146C634.574 765.685 634.366 764.795 634.202 763.968C632.904 757.439 634.121 740.435 634.078 732.731C634.025 723.346 632.936 713.319 633.697 704.006C633.814 702.579 634.215 701.742 635.048 700.598Z"/>
	<path fill="#7FC6D6" transform="scale(0.998047 0.998047)" d="M240.34 312.125C245.821 311.738 250.681 312.088 255.542 314.985C261.534 318.556 265.744 324.791 267.277 331.556C268.814 338.341 267.44 345.107 263.649 350.911C259.527 357.221 254.235 360.245 247.029 361.698C241.139 362.476 235.18 361.54 230.092 358.354Q229.549 358.01 229.024 357.638Q228.5 357.266 227.995 356.869Q227.489 356.471 227.005 356.048Q226.521 355.625 226.059 355.178Q225.597 354.731 225.158 354.261Q224.719 353.791 224.305 353.299Q223.89 352.808 223.501 352.296Q223.112 351.784 222.75 351.253Q222.388 350.722 222.053 350.173Q221.718 349.624 221.411 349.059Q221.105 348.493 220.828 347.913Q220.55 347.333 220.303 346.74Q220.055 346.147 219.838 345.542Q219.621 344.936 219.435 344.321Q219.249 343.705 219.094 343.081Q218.94 342.457 218.817 341.826Q218.695 341.168 218.606 340.505Q218.518 339.842 218.463 339.176Q218.409 338.509 218.388 337.84Q218.368 337.172 218.382 336.503Q218.396 335.834 218.444 335.167Q218.491 334.5 218.573 333.836Q218.655 333.172 218.771 332.514Q218.887 331.855 219.036 331.203Q219.185 330.551 219.367 329.907Q219.55 329.263 219.764 328.63Q219.979 327.997 220.226 327.375Q220.473 326.753 220.752 326.145Q221.03 325.537 221.339 324.944Q221.648 324.351 221.987 323.774Q222.326 323.197 222.694 322.639Q223.062 322.08 223.458 321.541C227.713 315.751 233.455 313.278 240.34 312.125Z"/>
	<path fill="#FEFEFE" transform="scale(0.998047 0.998047)" d="M239.872 320.53C242.939 320.329 245.822 320.215 248.743 321.343Q249.16 321.504 249.568 321.686Q249.975 321.868 250.373 322.071Q250.771 322.274 251.158 322.497Q251.544 322.721 251.919 322.964Q252.294 323.207 252.655 323.47Q253.017 323.732 253.364 324.013Q253.711 324.294 254.044 324.592Q254.376 324.89 254.692 325.206Q255.009 325.521 255.308 325.852Q255.608 326.183 255.89 326.53Q256.172 326.876 256.435 327.237Q256.699 327.597 256.944 327.971Q257.188 328.345 257.413 328.73Q257.638 329.116 257.842 329.513Q258.047 329.911 258.23 330.318Q258.414 330.725 258.576 331.141Q258.875 331.911 259.097 332.707Q259.318 333.503 259.459 334.317Q259.601 335.131 259.66 335.955Q259.72 336.779 259.697 337.605Q259.675 338.431 259.571 339.25Q259.466 340.07 259.281 340.875Q259.096 341.68 258.831 342.463Q258.567 343.245 258.226 343.998C255.811 349.314 251.629 351.821 246.382 353.685C243.046 354.037 239.625 353.841 236.511 352.502Q235.752 352.178 235.028 351.781Q234.305 351.383 233.625 350.915Q232.944 350.447 232.314 349.914Q231.684 349.381 231.11 348.788Q230.536 348.194 230.024 347.547Q229.511 346.899 229.066 346.204Q228.621 345.509 228.247 344.773Q227.874 344.037 227.575 343.267Q227.419 342.86 227.284 342.446Q227.149 342.032 227.035 341.611Q226.922 341.19 226.83 340.765Q226.739 340.339 226.669 339.908Q226.599 339.478 226.552 339.045Q226.505 338.612 226.48 338.177Q226.455 337.742 226.453 337.306Q226.451 336.871 226.471 336.436Q226.491 336 226.533 335.567Q226.576 335.133 226.641 334.702Q226.705 334.271 226.792 333.844Q226.879 333.418 226.988 332.996Q227.097 332.574 227.228 332.158Q227.358 331.742 227.51 331.334Q227.662 330.926 227.834 330.526Q228.007 330.126 228.2 329.735C230.688 324.65 234.703 322.221 239.872 320.53Z"/>
	<path fill="#194C6F" transform="scale(0.998047 0.998047)" d="M542.147 700.2C545.434 700.09 549.358 699.507 552.283 701.263C556.731 708.13 562.167 728.528 565.213 737.682C567.78 745.402 570.883 753.058 572.991 760.911C573.337 762.202 573.784 763.547 573.415 764.877C573.126 765.919 571.856 766.71 570.893 767.067C568.635 767.903 565.39 768.184 563.163 767.108C559.073 765.13 558.325 756.681 557.13 752.633L548.875 752.66L534.347 752.651C533.367 755.596 532.834 758.671 531.903 761.632C531.236 763.755 530.152 766.024 528.026 766.997C526.247 767.81 523.432 767.627 521.674 766.854C520.226 766.218 519.131 765.09 518.718 763.529C518.324 762.04 519.177 759.508 519.61 758.008C521.598 751.132 536.619 704.96 538.293 702.442C539.335 700.875 540.439 700.599 542.147 700.2Z"/>
	<path fill="#FEFEFE" transform="scale(0.998047 0.998047)" d="M545.241 714.324C546.944 715.984 553.639 739.523 554.987 743.469L545.875 743.588L536.88 743.665C539.762 734.125 543.648 724.138 545.241 714.324Z"/>
	<path fill="#194C6F" transform="scale(0.998047 0.998047)" d="M501.881 700.021C503.951 699.995 507.21 700.051 508.633 701.818C509.214 702.539 509.417 703.434 509.466 704.333C510.035 714.834 509.474 725.637 509.492 736.175C509.507 744.529 510.45 755.787 509.156 763.675C508.91 765.179 508.487 765.848 507.175 766.666C505.268 767.855 502.262 767.872 500.189 767.184C495.706 765.694 473.918 726.148 470.533 720.019C471.281 726.984 471.042 734.204 471.088 741.204C471.133 748.071 471.396 755.025 471.122 761.883C471.022 764.384 470.997 765.607 469.118 767.339C467.951 767.585 466.755 767.855 465.56 767.883C463.885 767.922 462.094 767.545 460.903 766.277C460.257 765.59 459.95 765.221 459.809 764.295C458.776 757.53 459.457 749.806 459.445 742.912C459.424 730.95 459.116 718.909 459.444 706.956C459.499 704.943 459.328 703.217 461.003 701.836C463.393 699.864 467.524 700.421 470.392 700.531C475.048 705.7 478.448 712.545 482.06 718.479C487.599 727.578 493.246 736.611 498.505 745.877C497.867 739.585 497.008 707.17 498.631 702.599C499.156 701.12 500.56 700.645 501.881 700.021Z"/>
	<path fill="#194C6F" transform="scale(0.998047 0.998047)" d="M334.604 700.566C338.988 700.494 343.387 700.372 347.771 700.466C356.868 700.661 366.909 702.482 373.339 709.525C379.878 716.688 381.374 727.048 381.002 736.391C380.636 745.588 378.133 754.326 371.229 760.765C367.783 763.562 363.934 765.343 359.623 766.31C353.947 767.584 336.859 768.874 332.179 765.86C331.092 762.989 330.905 708.506 331.761 704.226C332.169 702.184 332.967 701.631 334.604 700.566Z"/>
	<path fill="#FEFEFE" transform="scale(0.998047 0.998047)" d="M343.621 710.432C349.774 710.422 356.779 710.027 361.914 714.052C365.888 717.168 367.613 722.537 368.237 727.372C369.327 735.805 368.616 745.853 363.279 752.786C357.106 758.162 351.184 757.965 343.514 758.083L343.621 710.432Z"/>
	<path fill="#194C6F" transform="scale(0.998047 0.998047)" d="M413.565 700.105C420.119 699.381 426.915 699.638 432.917 702.652C439.437 705.927 443.497 711.956 445.609 718.777C448.964 729.61 448.654 744.5 443.042 754.566C439.153 761.543 433.349 765.256 425.824 767.382C418.571 768.956 410.349 767.951 403.988 764.044C397.328 759.954 393.52 753.052 391.894 745.595C389.541 734.811 390.268 720.287 396.592 710.873C400.739 704.702 406.445 701.563 413.565 700.105Z"/>
	<path fill="#FEFEFE" transform="scale(0.998047 0.998047)" d="M417.34 709.184C420.182 709.373 422.892 709.513 425.502 710.794C429.688 712.85 432.2 716.571 433.693 720.877C436.527 729.055 436.635 742.099 432.562 749.849C430.123 754.492 426.841 756.612 421.974 758.105C417.805 758.199 414.237 757.905 410.752 755.399C406.287 752.19 404.406 746.662 403.515 741.449C402.082 733.072 402.48 721.981 407.752 714.911C410.396 711.367 413.036 709.899 417.34 709.184Z"/>
	<path fill="#7FC6D6" transform="scale(0.998047 0.998047)" d="M331.856 224.204C335.667 224.224 339.223 224.841 342.787 226.168Q343.584 226.468 344.365 226.806Q345.147 227.144 345.911 227.52Q346.675 227.896 347.419 228.31Q348.164 228.723 348.887 229.172Q349.611 229.621 350.311 230.105Q351.012 230.588 351.688 231.106Q352.364 231.624 353.014 232.174Q353.664 232.724 354.286 233.305Q354.908 233.886 355.501 234.497Q356.094 235.108 356.657 235.748Q357.219 236.387 357.75 237.053Q358.28 237.719 358.777 238.41Q359.275 239.102 359.737 239.816Q360.2 240.531 360.627 241.268Q361.055 242.004 361.445 242.761Q361.836 243.517 362.189 244.292C364.338 243.883 366.486 243.489 368.669 243.315C374.469 242.851 380.283 243.917 384.719 247.927C388.109 250.991 390.008 255.268 390.22 259.814C390.443 264.585 388.965 269.16 385.593 272.603Q385.162 273.042 384.7 273.447Q384.238 273.853 383.748 274.223Q383.257 274.593 382.74 274.926Q382.224 275.259 381.684 275.553Q381.144 275.847 380.583 276.1Q380.023 276.353 379.446 276.564Q378.868 276.775 378.277 276.942Q377.685 277.11 377.083 277.233C369.604 278.8 347.895 277.552 338.625 277.532L303.598 277.628C295.561 277.658 287.319 278.85 281.196 272.498C278.135 269.323 276.374 265.358 276.545 260.92C276.742 255.781 278.409 250.897 282.244 247.369C288.066 242.013 296.162 242.915 303.458 243.101C304.534 240.135 305.981 237.494 308.02 235.074C314.139 227.812 322.653 224.955 331.856 224.204Z"/>
	<path fill="#FEFEFE" transform="scale(0.998047 0.998047)" d="M327.877 233.082C330.333 232.93 332.777 232.862 335.23 233.113Q335.969 233.184 336.702 233.303Q337.435 233.421 338.159 233.586Q338.882 233.751 339.594 233.961Q340.306 234.172 341.003 234.428Q341.7 234.683 342.379 234.983Q343.058 235.283 343.717 235.625Q344.376 235.967 345.011 236.351Q345.647 236.735 346.256 237.158Q346.866 237.582 347.448 238.043Q348.029 238.504 348.58 239.002Q349.131 239.5 349.649 240.031Q350.167 240.563 350.65 241.127Q351.133 241.691 351.579 242.284Q352.025 242.878 352.432 243.498Q352.839 244.119 353.206 244.764Q353.573 245.41 353.898 246.077C354.873 248.11 355.764 251.294 357.215 252.915C358.931 254.832 366.954 252.07 369.583 251.7C371.463 251.435 373.43 251.538 375.325 251.588C376.817 252.405 378.18 253.3 379.445 254.449C381.119 255.97 382.003 257.698 382.088 259.972C382.179 262.388 381.577 264.606 379.844 266.353C378.371 267.838 376.438 268.746 374.414 269.201C368.373 270.56 348.158 269.399 340.883 269.321L309.917 269.349C304.206 269.365 298.275 269.682 292.587 269.219C290.029 269.01 288.018 268.577 286.357 266.467C284.775 264.459 284.024 261.488 284.327 258.961Q284.383 258.532 284.481 258.111Q284.579 257.69 284.719 257.28Q284.858 256.871 285.038 256.477Q285.217 256.084 285.435 255.71Q285.653 255.337 285.907 254.987Q286.161 254.637 286.449 254.313Q286.736 253.99 287.055 253.698Q287.373 253.405 287.719 253.145C291.759 250.052 303.269 251.141 308.065 251.967C309.177 249.302 310.241 246.537 311.707 244.044C315.435 237.707 321.052 234.898 327.877 233.082Z"/>
	<path fill="#D6EAEE" transform="scale(0.998047 0.998047)" d="M412.601 286.905C419.513 277.82 426.621 269.546 435.335 262.119C453.643 246.514 479.137 235.161 502.889 231.989C534.035 227.829 567.586 235.461 592.666 254.71C603.481 263.011 613.459 272.698 621.375 283.802C622.685 285.64 624.392 287.555 625.151 289.694Q622.272 289.108 619.37 288.652Q616.468 288.196 613.548 287.87Q610.628 287.544 607.697 287.349Q604.766 287.154 601.828 287.091Q598.891 287.027 595.954 287.096Q593.017 287.164 590.086 287.364Q587.155 287.563 584.236 287.894Q581.316 288.225 578.415 288.686Q577.02 288.907 575.631 289.163Q574.242 289.419 572.86 289.708Q571.477 289.998 570.103 290.322Q568.728 290.646 567.361 291.004Q565.995 291.361 564.638 291.753Q563.281 292.144 561.934 292.569Q560.587 292.993 559.251 293.451Q557.915 293.909 556.59 294.399Q555.266 294.89 553.954 295.413Q552.642 295.936 551.343 296.491Q550.044 297.047 548.76 297.634Q547.475 298.221 546.206 298.84Q544.936 299.458 543.682 300.108Q542.428 300.758 541.19 301.439Q539.953 302.119 538.732 302.83Q537.512 303.541 536.309 304.282Q535.107 305.022 533.923 305.793Q532.739 306.563 531.575 307.362Q530.41 308.161 529.266 308.989Q528.121 309.817 526.998 310.672Q525.874 311.528 524.772 312.411Q523.669 313.294 522.589 314.204Q521.509 315.114 520.452 316.051Q519.395 316.987 518.361 317.95Q517.327 318.912 516.317 319.899Q515.307 320.887 514.322 321.899Q513.337 322.911 512.377 323.947Q511.417 324.983 510.483 326.042Q509.549 327.102 508.641 328.184Q507.734 329.266 506.853 330.37Q505.972 331.474 505.119 332.6Q504.266 333.726 503.441 334.872C500.007 330.629 496.61 326.385 492.764 322.502C466.906 296.397 438.719 287.506 402.717 287.418C405.921 286.654 409.328 286.895 412.601 286.905Z"/>
	<path fill="#D6EAEE" transform="scale(0.998047 0.998047)" d="M177.718 583.597Q176.524 576.824 175.752 569.991Q175.592 568.386 175.471 566.777Q175.35 565.168 175.269 563.556Q175.188 561.945 175.146 560.332Q175.104 558.719 175.102 557.106Q175.099 555.493 175.136 553.88Q175.173 552.267 175.25 550.655Q175.326 549.043 175.442 547.434Q175.558 545.825 175.714 544.219Q175.869 542.613 176.063 541.011Q176.258 539.41 176.492 537.813Q176.725 536.217 176.998 534.627Q177.271 533.036 177.582 531.453Q177.894 529.87 178.244 528.296Q178.594 526.721 178.983 525.155Q179.371 523.589 179.798 522.033Q180.225 520.477 180.69 518.932Q181.154 517.387 181.657 515.854Q182.159 514.32 182.699 512.8Q183.239 511.28 183.816 509.773Q184.392 508.266 185.006 506.774Q185.619 505.282 186.269 503.805Q186.919 502.328 187.605 500.868Q188.291 499.407 189.012 497.964Q189.733 496.521 190.49 495.096Q191.246 493.671 192.037 492.265Q192.829 490.859 193.654 489.472Q194.479 488.086 195.338 486.72Q196.197 485.354 197.089 484.01Q197.981 482.666 198.906 481.343Q199.831 480.021 200.787 478.722Q201.744 477.423 202.732 476.148Q203.721 474.873 204.74 473.622C220.973 453.637 244.201 437.426 269.533 431.535C275.958 430.041 282.624 429.56 289.177 428.877C291.881 445.508 297.372 461.82 306.379 476.155C315.975 491.424 328.895 503.073 341.364 515.907Q373.939 549.022 406.904 581.747C406.017 582.345 405.34 582.733 404.255 582.854C399.344 583.399 393.928 582.987 388.976 582.984L357.193 582.976L243.17 582.821L204.308 582.829C195.472 582.867 186.509 582.613 177.718 583.597Z"/>
	<path fill="#D6EAEE" transform="scale(0.998047 0.998047)" d="M711.454 369.295C746.679 370.291 780.921 388.725 804.897 414.052C828.642 439.135 845.104 472.538 848.983 507.008C849.94 515.516 849.752 524.304 849.495 532.855C848.967 550.441 845.327 566.669 838.948 583.063C817.684 582.577 796.35 582.971 775.08 583L668.581 583.037L624.509 583.159C617.618 583.15 610.602 583.422 603.73 582.992C602.305 582.903 601.15 582.728 599.933 581.926C621.384 560.236 642.908 538.71 663.835 516.507C676.83 502.72 690.827 489.893 700.19 473.196C718.629 440.315 721.499 405.181 711.454 369.295Z"/>
	<path fill="#194C6F" transform="scale(0.998047 0.998047)" d="M503.441 334.872Q504.266 333.726 505.119 332.6Q505.972 331.474 506.853 330.37Q507.734 329.266 508.641 328.184Q509.549 327.102 510.483 326.042Q511.417 324.983 512.377 323.947Q513.337 322.911 514.322 321.899Q515.307 320.887 516.317 319.899Q517.327 318.912 518.361 317.95Q519.395 316.987 520.452 316.051Q521.509 315.114 522.589 314.204Q523.669 313.294 524.772 312.411Q525.874 311.528 526.998 310.672Q528.121 309.817 529.266 308.989Q530.41 308.161 531.575 307.362Q532.739 306.563 533.923 305.793Q535.107 305.022 536.309 304.282Q537.512 303.541 538.732 302.83Q539.953 302.119 541.19 301.439Q542.428 300.758 543.682 300.108Q544.936 299.458 546.206 298.84Q547.475 298.221 548.76 297.634Q550.044 297.047 551.343 296.491Q552.642 295.936 553.954 295.413Q555.266 294.89 556.59 294.399Q557.915 293.909 559.251 293.451Q560.587 292.993 561.934 292.569Q563.281 292.144 564.638 291.753Q565.995 291.361 567.361 291.004Q568.728 290.646 570.103 290.322Q571.477 289.998 572.86 289.708Q574.242 289.419 575.631 289.163Q577.02 288.907 578.415 288.686Q581.316 288.225 584.236 287.894Q587.155 287.563 590.086 287.364Q593.017 287.164 595.954 287.096Q598.891 287.027 601.828 287.091Q604.766 287.154 607.697 287.349Q610.628 287.544 613.548 287.87Q616.468 288.196 619.37 288.652Q622.272 289.108 625.151 289.694C635.345 292.847 645.675 296.076 655.22 300.921C675.015 310.968 692.745 329.694 703.006 349.243Q707.995 358.947 711.454 369.295C721.499 405.181 718.629 440.315 700.19 473.196C690.827 489.893 676.83 502.72 663.835 516.507C642.908 538.71 621.384 560.236 599.933 581.926C577.168 605.685 553.554 628.821 530.144 651.953C523.573 658.446 511.44 672.274 504.189 676.64C501.44 675.824 498.934 673.646 496.791 671.782C487.27 663.499 478.821 654.095 469.879 645.214Q438.213 613.658 406.904 581.747Q373.938 549.022 341.364 515.907C328.895 503.073 315.975 491.424 306.379 476.155C297.372 461.82 291.881 445.508 289.177 428.877C288.575 425.537 288.256 422.134 287.992 418.751Q287.881 417.241 287.807 415.729Q287.734 414.216 287.697 412.703Q287.66 411.189 287.661 409.675Q287.661 408.161 287.699 406.647Q287.736 405.133 287.811 403.621Q287.885 402.109 287.997 400.599Q288.109 399.089 288.257 397.582Q288.406 396.075 288.591 394.572Q288.777 393.069 288.999 391.572Q289.221 390.074 289.48 388.582Q289.739 387.09 290.034 385.605Q290.329 384.12 290.661 382.643Q290.993 381.165 291.361 379.696Q291.728 378.228 292.132 376.768Q292.536 375.309 292.975 373.86Q293.414 372.411 293.889 370.973Q294.363 369.535 294.873 368.109Q295.383 366.684 295.927 365.271Q296.472 363.858 297.051 362.459Q297.63 361.06 298.243 359.675Q298.856 358.291 299.503 356.922Q300.15 355.553 300.83 354.2Q301.51 352.847 302.223 351.511Q302.936 350.176 303.682 348.858Q304.427 347.54 305.205 346.241Q305.983 344.942 306.792 343.662Q307.601 342.382 308.442 341.123Q309.282 339.863 310.153 338.625Q311.024 337.386 311.925 336.169Q312.826 334.953 313.757 333.758Q314.688 332.564 315.647 331.393Q316.607 330.221 317.595 329.074C339.83 303.325 369.028 289.888 402.717 287.418C438.719 287.506 466.906 296.397 492.764 322.502C496.61 326.385 500.007 330.629 503.441 334.872Z"/>
	<path fill="#FEFEFE" transform="scale(0.998047 0.998047)" d="M499.419 662.689C481.367 642.878 462.058 624.182 443.087 605.253Q404.139 566.376 365.604 527.09Q353.169 514.378 340.573 501.825C333.518 494.744 326.354 487.873 320.381 479.817C310.738 466.811 304.287 453.038 300.315 437.292C293.149 408.877 297.736 376.465 312.79 351.316Q313.496 350.111 314.231 348.924Q314.967 347.737 315.732 346.569Q316.497 345.402 317.291 344.253Q318.086 343.105 318.909 341.977Q319.732 340.849 320.583 339.742Q321.434 338.635 322.312 337.55Q323.191 336.464 324.096 335.401Q325.002 334.339 325.934 333.299Q326.866 332.259 327.824 331.243Q328.782 330.227 329.765 329.236Q330.748 328.244 331.755 327.278Q332.763 326.311 333.795 325.37Q334.826 324.429 335.881 323.515Q336.936 322.6 338.014 321.712Q339.092 320.824 340.191 319.964Q341.291 319.103 342.412 318.27Q343.533 317.438 344.674 316.634Q345.815 315.83 346.977 315.054Q348.138 314.279 349.319 313.533Q350.499 312.787 351.698 312.072Q352.897 311.356 354.113 310.67Q355.329 309.985 356.563 309.33Q357.796 308.675 359.045 308.052Q360.295 307.428 361.559 306.836Q362.824 306.244 364.103 305.684Q365.382 305.124 366.675 304.597Q367.968 304.069 369.273 303.574Q370.579 303.079 371.897 302.617Q373.214 302.155 374.543 301.726Q375.872 301.298 377.211 300.902Q378.55 300.507 379.899 300.146Q381.248 299.784 382.605 299.457C410.463 292.551 441.45 297.874 465.869 312.765C489.285 327.044 508.191 352.215 514.678 378.92L514.105 379.042C511.445 373.797 508.772 368.419 505.346 363.623C493.72 347.352 475.268 334.072 456.342 327.805C430.511 319.252 402.96 321.757 378.75 334.01C354.437 346.314 337.051 367.658 328.609 393.429C322.419 412.327 320.454 437.411 329.625 455.734C329.922 456.327 329.813 456.142 330.231 456.624C333.111 466.637 343.171 481.728 349.694 489.827C360.168 502.831 372.076 514.745 383.804 526.607L422.58 565.617Q448.06 591.474 473.885 616.987C482.304 625.389 490.478 634.14 499.25 642.172Q499.423 652.43 499.419 662.689Z"/>
	<path fill="#E0746A" transform="scale(0.998047 0.998047)" d="M508.278 342.182Q509.082 341.063 509.914 339.965Q510.745 338.867 511.604 337.789Q512.462 336.712 513.347 335.656Q514.232 334.6 515.142 333.566Q516.053 332.532 516.988 331.521Q517.924 330.509 518.885 329.522Q519.845 328.534 520.829 327.57Q521.814 326.606 522.822 325.667Q523.83 324.728 524.86 323.814Q525.891 322.9 526.944 322.012Q527.997 321.123 529.072 320.261Q530.146 319.399 531.242 318.564Q532.337 317.728 533.453 316.92Q534.569 316.112 535.704 315.332Q536.839 314.551 537.994 313.799Q539.148 313.047 540.32 312.324Q541.493 311.6 542.683 310.906Q543.873 310.212 545.079 309.547Q546.286 308.882 547.509 308.247Q548.732 307.613 549.97 307.008Q551.208 306.404 552.46 305.83Q553.713 305.256 554.979 304.714Q556.245 304.171 557.524 303.66Q558.804 303.149 560.095 302.669Q561.387 302.19 562.69 301.742Q563.993 301.294 565.306 300.879Q566.62 300.464 567.943 300.081Q569.267 299.698 570.599 299.348Q571.932 298.998 573.272 298.681Q574.613 298.364 575.961 298.08Q577.309 297.796 578.664 297.546Q580.019 297.295 581.379 297.078Q582.738 296.872 584.102 296.699Q585.466 296.527 586.834 296.388Q588.202 296.249 589.573 296.144Q590.944 296.038 592.317 295.967Q593.69 295.895 595.064 295.858Q596.438 295.82 597.813 295.816Q599.188 295.813 600.562 295.843Q601.937 295.873 603.31 295.937Q604.684 296 606.055 296.098Q607.426 296.196 608.795 296.327Q610.164 296.459 611.529 296.624Q612.893 296.789 614.254 296.987Q615.614 297.186 616.969 297.418Q618.324 297.65 619.674 297.915Q621.023 298.181 622.365 298.479Q623.707 298.778 625.041 299.109Q626.375 299.44 627.701 299.805Q629.027 300.169 630.343 300.565Q631.659 300.962 632.966 301.391Q634.272 301.82 635.567 302.281Q636.862 302.742 638.146 303.235Q639.429 303.728 640.701 304.252Q641.971 304.776 643.229 305.331Q644.487 305.887 645.731 306.473Q646.974 307.059 648.203 307.675Q649.432 308.292 650.645 308.939Q651.858 309.585 653.055 310.262Q654.252 310.938 655.432 311.643Q656.612 312.349 657.775 313.083Q658.937 313.818 660.081 314.581Q661.225 315.343 662.349 316.134Q663.474 316.925 664.579 317.743C687.677 334.714 703.656 362.51 707.846 390.762C712.278 420.647 704.412 454.105 686.393 478.499C680.127 486.982 672.358 494.472 665.184 502.188Q644.772 524.491 623.361 545.837L550.8 618.8C536.516 633.12 521.944 647.224 507.946 661.82C508.811 655.634 508.581 649.226 508.637 642.987L572.065 578.663L593.396 557.012C596.263 554.1 599.535 551.323 602.195 548.24C603.239 547.03 603.675 546.209 603.585 544.581C603.501 543.071 603.011 541.955 601.923 540.911C600.28 540.367 599.077 540.614 597.551 541.366C595.827 542.215 594.226 543.485 592.827 544.797C587.604 549.696 582.788 555.111 577.813 560.266C571.292 567.022 564.602 573.627 557.99 580.293C539.971 598.46 521.352 616.359 504.174 635.311C481.603 611.309 457.851 588.345 434.513 565.096L364.73 494.444C356.898 486.5 348.239 479.211 340.578 471.151C336.428 466.785 334.167 460.864 330.231 456.624C329.813 456.142 329.922 456.327 329.625 455.734C320.454 437.411 322.419 412.327 328.609 393.429C337.051 367.658 354.437 346.314 378.75 334.01C402.96 321.757 430.511 319.252 456.342 327.805C475.268 334.072 493.72 347.352 505.346 363.623C508.772 368.419 511.445 373.797 514.105 379.042L514.678 378.92L514.898 379.555C516.497 384.292 516.893 399.749 520.99 401.322C521.997 401.709 523.209 401.787 524.149 401.215C525.754 400.238 526.556 398.423 526.797 396.635C528.664 382.769 516.439 353.502 508.278 342.182Z"/>
	<path fill="#194C6F" transform="scale(0.998047 0.998047)" d="M591.851 309.215C618.607 308.345 643.151 316.833 662.778 335.26C683.33 354.556 693.245 379.658 693.952 407.57C694.133 414.706 693.347 438.864 687.385 443.644C686.193 444.6 685.858 444.54 684.429 444.426C683.707 443.955 683.111 443.551 682.576 442.863C681.044 440.891 680.838 439.471 681.094 437.027C681.113 436.847 681.136 436.668 681.157 436.488C686.869 417.763 685.777 394.709 679.17 376.355C667.382 343.603 635.206 319.837 600.438 318.542C597.478 318.432 594.45 318.359 591.494 318.58C587.244 318.896 579.605 321.478 575.816 319.181C574.723 318.519 574.124 317.474 574.007 316.21C573.873 314.757 574.276 313.647 575.236 312.572C578.144 309.317 587.598 309.53 591.851 309.215Z"/>
	<path fill="#194C6F" transform="scale(0.998047 0.998047)" d="M585.148 366.675C597.276 365.01 611.021 368.748 620.999 375.698C632.227 383.519 639.513 396.109 641.856 409.497C644.465 424.405 641.542 438.988 632.805 451.396C623.997 463.905 611.103 471.405 596.125 473.958C582.406 474.745 569.91 472.214 558.652 463.968C547.197 455.577 539.115 443.007 537.026 428.9C534.976 415.063 538.359 399.508 546.889 388.299C556.107 376.185 570.195 368.685 585.148 366.675Z"/>
	<path fill="#7FC6D6" transform="scale(0.998047 0.998047)" d="M585.326 376.18C585.564 376.14 585.8 376.088 586.039 376.061C596.479 374.9 607.348 376.792 615.906 383.1C625.137 389.903 631.614 401.038 633.282 412.339C635.128 424.849 632.237 436.912 624.56 447.005C617.5 456.287 607.097 462.971 595.495 464.585C584.267 465.627 573.193 463.359 563.998 456.613C554.333 449.523 547.42 438.941 545.748 426.994C544.132 415.443 546.931 403.609 554.067 394.329C561.849 384.21 572.7 377.856 585.326 376.18Z"/>
	<path fill="#194C6F" transform="scale(0.998047 0.998047)" d="M581.299 386.648C586.268 386.479 598.061 384.666 601.878 388.304C605.562 391.816 604.456 400.384 604.414 405.081C608.468 405.038 619.764 403.926 622.681 406.743C624.771 408.761 625.152 413.152 625.312 415.91C625.542 419.863 625.777 428.697 622.678 431.517C619.788 434.148 608.151 433.105 604.005 433.098C603.994 438.001 604.877 444.447 603.143 449.068C602.38 451.101 601.275 452.063 599.348 452.946C594.483 453.02 582.324 454.634 578.472 451.426C574.662 448.253 575.964 437.87 576.008 433.146C572.646 433.146 569.28 433.391 565.916 433.381C563.037 433.372 559.325 433.073 557.254 430.797C553.753 426.95 555.435 415.275 555.577 410.297C556.569 408.714 557.768 407.413 559.026 406.038C564.482 405.546 570.116 405.773 575.598 405.732C575.683 400.987 575.064 394.728 576.911 390.374C577.819 388.233 579.176 387.414 581.299 386.648Z"/>
	<path fill="#FEFEFE" transform="scale(0.998047 0.998047)" d="M584.512 394.714L595.826 394.788C595.873 399.328 594.188 408.508 597.358 411.994C600.224 415.145 611.991 414.1 616.381 414.402L616.355 424.605C612.283 424.678 608.219 424.491 604.148 424.459C601.678 424.439 598.327 424.283 596.589 426.395C593.87 429.702 595.188 438.575 595.32 442.881L594.686 443.823C591.558 444.357 588.151 444.074 584.977 444.021C584.971 440.352 585.179 436.68 585.119 433.01C585.076 430.38 584.646 427.603 582.589 425.774C579.069 422.643 568.675 423.985 564.011 424.08L563.998 414.35C568.786 413.922 579.288 415.297 582.961 412.633C585.694 408.615 584.506 399.63 584.512 394.714Z"/>
	<path fill="#194C6F" transform="scale(0.998047 0.998047)" d="M422.429 373.696L447.697 373.774C451.969 373.775 456.927 373.319 461.13 374.074C462.758 374.366 464.389 374.98 465.597 376.146C466.909 377.413 467.53 379.177 467.742 380.956C468.315 385.76 467.694 391.038 467.692 395.903L467.928 425.981C476.31 425.97 507.84 424.574 513.832 427.136C515.148 427.699 516.339 428.453 516.851 429.86C517.905 432.75 517.918 463.5 517.556 468.374C517.429 470.083 517.172 472.965 516.136 474.397C514.977 476 511.509 476.649 509.699 476.898C504.985 477.546 499.759 477.133 494.986 477.122L467.475 477.017C467.628 483.481 468.547 523.282 467.324 526.111C467.122 526.578 466.323 527.492 465.927 527.885C463.713 530.085 460.292 530.03 457.404 530.02C451.82 530.031 420.937 530.926 418.41 529.062C416.747 527.835 416.025 524.554 415.732 522.665C414.988 517.868 415.383 512.484 415.364 507.622Q415.308 492.283 415.514 476.946L384.894 477.06C380.004 477.081 374.405 477.661 369.598 476.862C368.181 476.626 367.04 476.083 365.959 475.127C363.69 473.119 363.335 470.188 363.171 467.313C362.871 462.024 363.425 456.617 363.402 451.311C363.374 444.975 362.356 437.692 363.271 431.464C363.463 430.16 363.86 429.104 364.783 428.132C365.869 426.986 366.999 426.378 368.557 426.145C373.852 425.353 379.947 426.034 385.309 426.105Q400.293 426.363 415.278 426.158C415.044 418.644 413.766 380.554 416.591 376.535C417.999 374.531 420.162 374.099 422.429 373.696Z"/>
	<path fill="#FEFEFE" transform="scale(0.998047 0.998047)" d="M423.993 382.451Q441.504 382.296 459.015 382.429L458.947 413.005C458.902 417.986 458.208 423.562 458.883 428.453C459.094 429.977 459.573 431.543 460.656 432.681C461.748 433.83 463.368 434.413 464.904 434.656C470.003 435.461 476.139 434.692 481.333 434.618Q495.152 434.493 508.971 434.531Q509.066 451.498 508.73 468.462C499.745 468.422 467.192 467.004 461.454 469.6C460.705 469.939 459.87 470.393 459.584 471.195C458.119 475.295 459.095 505.139 459.082 510.978C459.075 513.996 459.576 518.321 458.59 521.147L457.593 521.484L424.049 521.22Q423.947 496.407 424.109 471.597C423.272 470.278 422.195 469.195 421.133 468.06L372.237 468.388L371.994 434.654C381.189 434.646 415.538 435.735 422.031 433.759C423.291 432.252 423.592 430.635 423.839 428.729C424.504 423.608 424.079 417.989 424.072 412.81L423.993 382.451Z"/>
</svg>
